<svg width="15" height="15" viewBox="0 0 15 15" fill="none" xmlns="http://www.w3.org/2000/svg">
<path fill-rule="evenodd" clip-rule="evenodd" d="M13.7771 2.00644C14.1676 1.61592 14.1676 0.982754 13.7771 0.592229C13.3866 0.201705 12.7534 0.201705 12.3629 0.592229L7.18485 5.77024L2.00684 0.592229C1.61631 0.201705 0.983148 0.201704 0.592624 0.592229C0.202099 0.982754 0.202099 1.61592 0.592624 2.00644L5.77064 7.18446L0.592229 12.3629C0.201705 12.7534 0.201705 13.3866 0.592229 13.7771C0.982753 14.1676 1.61592 14.1676 2.00644 13.7771L7.18485 8.59867L12.3633 13.7771C12.7538 14.1676 13.387 14.1676 13.7775 13.7771C14.168 13.3866 14.168 12.7534 13.7775 12.3629L8.59907 7.18446L13.7771 2.00644Z" fill="black"/>
</svg>
