<svg width="80" height="80" viewBox="0 0 80 80" fill="none" xmlns="http://www.w3.org/2000/svg">
<g clip-path="url(#clip0_2024_52404)">
<path d="M74.6811 41.0362C74.3592 40.3776 74.3592 39.6223 74.6811 38.9639L77.6648 32.86C79.326 29.4614 78.0098 25.4107 74.6682 23.6377L68.6667 20.4534C68.0192 20.1099 67.5753 19.4987 67.4486 18.777L66.2749 12.085C65.6213 8.35906 62.1747 5.85533 58.4299 6.38517L51.7029 7.33673C50.9768 7.43922 50.2589 7.20579 49.7321 6.69626L44.8492 1.97254C42.1303 -0.65776 37.871 -0.657916 35.1522 1.97254L30.2691 6.69673C29.7423 7.20641 29.0243 7.43938 28.2984 7.33719L21.5714 6.38564C17.8253 5.85548 14.38 8.35953 13.7264 12.0854L12.5527 18.7771C12.426 19.499 11.982 20.1101 11.3347 20.4537L5.33318 23.638C1.99164 25.4108 0.675397 29.4619 2.33664 32.8605L5.32021 38.9642C5.64209 39.6228 5.64209 40.3781 5.32021 41.0365L2.33648 47.1402C0.675241 50.5388 1.99148 54.5896 5.33303 56.3625L11.3346 59.5469C11.9821 59.8903 12.426 60.5016 12.5527 61.2233L13.7264 67.9153C14.3214 71.3071 17.2298 73.6859 20.5725 73.6856C20.9017 73.6856 21.2357 73.6624 21.5715 73.6149L28.2985 72.6634C29.024 72.5604 29.7424 72.7943 30.2693 73.3038L35.1522 78.0276C36.5119 79.3429 38.256 80.0004 40.0006 80.0002C41.7448 80.0001 43.49 79.3426 44.849 78.0276L49.7321 73.3038C50.259 72.7943 50.9771 72.5615 51.7029 72.6634L58.4299 73.6149C62.1764 74.1449 65.6213 71.641 66.2749 67.9151L67.4488 61.2234C67.5755 60.5016 68.0194 59.8905 68.6667 59.5469L74.6682 56.3625C78.0098 54.5897 79.326 50.5387 77.6648 47.1401L74.6811 41.0362ZM72.5056 52.2865L66.5041 55.4708C64.5906 56.4863 63.2783 58.2922 62.9041 60.4259L61.7304 67.1178C61.5093 68.3784 60.3438 69.2251 59.0761 69.0462L52.3492 68.0947C50.2039 67.7907 48.0811 68.4812 46.524 69.9873L41.6409 74.7109C40.7213 75.6005 39.2802 75.6005 38.3602 74.7109L33.4772 69.9871C32.1613 68.7142 30.441 68.0243 28.6451 68.0243C28.316 68.0243 27.9843 68.0475 27.6521 68.0945L20.9251 69.0461C19.6586 69.2251 18.4922 68.3782 18.2709 67.1176L17.097 60.4256C16.7226 58.2919 15.4105 56.4858 13.4969 55.4707L7.49536 52.2863C6.36474 51.6865 5.91943 50.316 6.48146 49.1662L9.46519 43.0623C10.4164 41.1161 10.4164 38.8839 9.46519 36.9376L6.48146 30.8338C5.91943 29.6839 6.36474 28.3135 7.49536 27.7136L13.4969 24.5293C15.4103 23.5138 16.7226 21.7079 17.0969 19.5742L18.2706 12.8823C18.4919 11.6217 19.6572 10.7748 20.9248 10.9539L27.6518 11.9054C29.7963 12.209 31.9199 11.5189 33.4769 10.0128L38.36 5.28908C39.2797 4.3994 40.7208 4.3994 41.6408 5.28908L46.5237 10.0128C48.0807 11.519 50.204 12.209 52.3488 11.9054L59.0758 10.9539C60.3425 10.7747 61.5089 11.6217 61.73 12.8823L62.9038 19.5743C63.2782 21.708 64.5903 23.5141 66.5039 24.5293L72.5054 27.7136C73.6361 28.3135 74.0814 29.6839 73.5193 30.8338L70.5356 36.9375C69.5844 38.8836 69.5844 41.1161 70.5356 43.0621L73.5193 49.1659C74.0815 50.316 73.6362 51.6866 72.5056 52.2865Z" fill="#1E24C0"/>
<path d="M56.8564 23.143C55.9556 22.2421 54.4947 22.2421 53.5937 23.143L23.1425 53.5944C22.2416 54.4953 22.2416 55.9561 23.1425 56.857C23.593 57.3075 24.1834 57.5328 24.7737 57.5328C25.364 57.5328 25.9547 57.3076 26.405 56.857L56.8562 26.4058C57.7575 25.5047 57.7574 24.0441 56.8564 23.143Z" fill="#1E24C0"/>
<path d="M30.7717 19.2368C26.1073 19.2368 22.3125 23.0316 22.3125 27.696C22.3125 32.3603 26.1073 36.1552 30.7717 36.1552C35.436 36.1552 39.2308 32.3603 39.2308 27.696C39.2308 23.0316 35.436 19.2368 30.7717 19.2368ZM30.7717 31.541C28.6515 31.541 26.9267 29.8161 26.9267 27.6958C26.9267 25.5757 28.6515 23.8509 30.7717 23.8509C32.8918 23.8509 34.6168 25.5757 34.6168 27.6958C34.6166 29.8161 32.8918 31.541 30.7717 31.541Z" fill="#1E24C0"/>
<path d="M49.2287 43.845C44.5644 43.845 40.7695 47.6398 40.7695 52.3041C40.7695 56.9685 44.5644 60.7633 49.2287 60.7633C53.8931 60.7633 57.6879 56.9685 57.6879 52.3041C57.6879 47.6398 53.8931 43.845 49.2287 43.845ZM49.2287 56.1491C47.1086 56.1491 45.3836 54.4243 45.3836 52.3041C45.3836 50.184 47.1084 48.4592 49.2287 48.4592C51.3488 48.4592 53.0737 50.184 53.0737 52.3041C53.0737 54.4243 51.3488 56.1491 49.2287 56.1491Z" fill="#1E24C0"/>
</g>
<defs>
<clipPath id="clip0_2024_52404">
<rect width="80" height="80" fill="white"/>
</clipPath>
</defs>
</svg>
