<svg width="100" height="102" viewBox="0 0 100 102" fill="none" xmlns="http://www.w3.org/2000/svg">
<path d="M30.5 85.3438H27.6875V88.1562H30.5V85.3438Z" fill="#1E24C0"/>
<path d="M60.0312 68.4688H36.125V47.375C36.125 47.002 35.9768 46.6444 35.7131 46.3806C35.4494 46.1169 35.0917 45.9688 34.7188 45.9688H9.40625C9.03329 45.9688 8.6756 46.1169 8.41188 46.3806C8.14816 46.6444 8 47.002 8 47.375V92.375C8 92.748 8.14816 93.1056 8.41188 93.3694C8.6756 93.6331 9.03329 93.7812 9.40625 93.7812H60.0312C60.4042 93.7812 60.7619 93.6331 61.0256 93.3694C61.2893 93.1056 61.4375 92.748 61.4375 92.375V69.875C61.4375 69.502 61.2893 69.1444 61.0256 68.8806C60.7619 68.6169 60.4042 68.4688 60.0312 68.4688ZM44.5625 71.2812H50.1875V76.9062H44.5625V71.2812ZM19.25 48.7812H24.875V54.4062H19.25V48.7812ZM10.8125 48.7812H16.4375V55.8125C16.4375 56.1855 16.5857 56.5431 16.8494 56.8069C17.1131 57.0706 17.4708 57.2188 17.8438 57.2188H26.2812C26.6542 57.2188 27.0119 57.0706 27.2756 56.8069C27.5393 56.5431 27.6875 56.1855 27.6875 55.8125V48.7812H33.3125V68.4688H10.8125V48.7812ZM19.25 71.2812H24.875V76.9062H19.25V71.2812ZM10.8125 71.2812H16.4375V78.3125C16.4375 78.6855 16.5857 79.0431 16.8494 79.3069C17.1131 79.5706 17.4708 79.7188 17.8438 79.7188H26.2812C26.6542 79.7188 27.0119 79.5706 27.2756 79.3069C27.5393 79.0431 27.6875 78.6855 27.6875 78.3125V71.2812H33.3125V90.9688H10.8125V71.2812ZM58.625 90.9688H36.125V71.2812H41.75V78.3125C41.75 78.6855 41.8982 79.0431 42.1619 79.3069C42.4256 79.5706 42.7833 79.7188 43.1562 79.7188H51.5938C51.9667 79.7188 52.3244 79.5706 52.5881 79.3069C52.8518 79.0431 53 78.6855 53 78.3125V71.2812H58.625V90.9688Z" fill="#1E24C0"/>
<path d="M55.8125 85.3438H53V88.1562H55.8125V85.3438Z" fill="#1E24C0"/>
<path d="M30.5 62.8438H27.6875V65.6562H30.5V62.8438Z" fill="#1E24C0"/>
<path d="M90.639 26.2419C90.747 26.2681 90.8578 26.2814 90.9689 26.2813C91.2154 26.2811 91.4575 26.2164 91.6711 26.0935C91.8847 25.9706 92.0624 25.7939 92.1864 25.581C92.3141 25.3562 92.3793 25.1012 92.3752 24.8427V19.25C92.3752 18.9345 92.269 18.6281 92.0738 18.3802C91.8786 18.1323 91.6056 17.9572 91.2989 17.8832L50.5176 8.03942C50.3008 7.98686 50.0746 7.98686 49.8578 8.03942L9.0765 17.8832C8.76975 17.9572 8.49682 18.1323 8.3016 18.3802C8.10638 18.6281 8.00022 18.9345 8.00019 19.25V24.8351C7.99539 25.1296 8.07957 25.4186 8.24172 25.6645C8.40263 25.9011 8.6318 26.0831 8.89871 26.1863C9.16563 26.2894 9.45764 26.3088 9.73586 26.2419L12.2189 25.6427V43.1563H15.0314V24.9638L50.1877 16.4778L85.3439 24.9638V90.9688H76.9064V36.125C76.9064 35.7521 76.7583 35.3944 76.4946 35.1307C76.2308 34.867 75.8732 34.7188 75.5002 34.7188H24.8752C24.5022 34.7188 24.1446 34.867 23.8808 35.1307C23.6171 35.3944 23.4689 35.7521 23.4689 36.125V41.75C23.4689 42.123 23.6171 42.4807 23.8808 42.7444C24.1446 43.0081 24.5022 43.1563 24.8752 43.1563H74.0939V45.9688H38.9377V48.7813H74.0939V51.5938H38.9377V54.4063H74.0939V57.2188H38.9377V60.0313H74.0939V90.9688H64.2502V93.7813H92.3752V90.9688H88.1564V25.6427L90.639 26.2419ZM26.2814 40.3438V37.5313H74.0939V40.3438H26.2814ZM50.1877 13.625C50.0765 13.625 49.9658 13.6382 49.8578 13.6644L10.8127 23.0889V20.3575L50.1877 10.853L89.5627 20.3575V23.0891L50.5176 13.6644C50.4096 13.6382 50.2989 13.625 50.1877 13.625Z" fill="#1E24C0"/>
<path d="M53 30.5C54.1189 30.5 55.1919 30.0555 55.9831 29.2644C56.7743 28.4732 57.2188 27.4001 57.2188 26.2812C57.2188 25.1624 56.7743 24.0893 55.9831 23.2981C55.1919 22.507 54.1189 22.0625 53 22.0625H47.375C46.2561 22.0625 45.1831 22.507 44.3919 23.2981C43.6007 24.0893 43.1563 25.1624 43.1562 26.2812C43.1563 27.4001 43.6007 28.4732 44.3919 29.2644C45.1831 30.0555 46.2561 30.5 47.375 30.5H53ZM45.9688 26.2812C45.9692 25.9084 46.1175 25.551 46.3811 25.2873C46.6447 25.0237 47.0022 24.8754 47.375 24.875H53C53.373 24.875 53.7306 25.0232 53.9944 25.2869C54.2581 25.5506 54.4062 25.9083 54.4062 26.2812C54.4062 26.6542 54.2581 27.0119 53.9944 27.2756C53.7306 27.5393 53.373 27.6875 53 27.6875H47.375C47.0022 27.6871 46.6447 27.5388 46.3811 27.2752C46.1175 27.0115 45.9692 26.6541 45.9688 26.2812Z" fill="#1E24C0"/>
</svg>
