<svg width="100" height="100" viewBox="0 0 100 100" fill="none" xmlns="http://www.w3.org/2000/svg">
<path d="M31.7822 84.9844C25.9469 82.7409 20.7651 79.0742 16.708 74.3177C12.651 69.5612 9.84751 63.8659 8.55256 57.7498C7.2576 51.6337 7.51227 45.2908 9.2934 39.2982C11.0745 33.3056 14.3256 27.8534 18.7509 23.4375L20.6884 26.7188C20.824 26.9475 21.0157 27.1379 21.2453 27.2719C21.475 27.4058 21.7351 27.479 22.0009 27.4844C22.2624 27.4839 22.5195 27.4179 22.7488 27.2923C22.9781 27.1668 23.1722 26.9857 23.3134 26.7656L30.8915 15.0313C31.0436 14.7847 31.1242 14.5007 31.1242 14.2109C31.1242 13.9212 31.0436 13.6372 30.8915 13.3906C30.7443 13.1407 30.5303 12.9367 30.2737 12.8015C30.017 12.6663 29.7278 12.6051 29.4384 12.625L15.6259 13.625C15.3578 13.6436 15.0991 13.731 14.8746 13.8788C14.6502 14.0266 14.4676 14.2298 14.3447 14.4688C14.2075 14.7063 14.1353 14.9757 14.1353 15.25C14.1353 15.5243 14.2075 15.7937 14.3447 16.0313L17.1259 20.7188C12.2004 25.4541 8.54882 31.3552 6.50897 37.8762C4.46912 44.3972 4.10692 51.3273 5.45589 58.0254C6.80485 64.7234 9.82139 70.9731 14.2264 76.1961C18.6314 81.4191 24.2827 85.4467 30.6572 87.9062C30.85 87.977 31.055 88.0091 31.2603 88.0007C31.4656 87.9923 31.6672 87.9436 31.8536 87.8572C32.0401 87.7709 32.2077 87.6487 32.3469 87.4976C32.4861 87.3465 32.5942 87.1694 32.665 86.9766C32.7358 86.7837 32.7679 86.5788 32.7595 86.3735C32.7511 86.1682 32.7023 85.9666 32.616 85.7801C32.5296 85.5937 32.4074 85.4261 32.2563 85.2868C32.1052 85.1476 31.9282 85.0395 31.7353 84.9688L31.7822 84.9844ZM26.6728 15.9844L22.1572 22.9844L18.3603 16.5781L26.6728 15.9844Z" fill="#1E24C0"/>
<path d="M69.2976 13.2812C69.1009 13.2074 68.8914 13.1741 68.6815 13.1831C68.4716 13.1921 68.2657 13.2434 68.076 13.3338C67.8864 13.4243 67.717 13.552 67.5779 13.7094C67.4387 13.8668 67.3328 14.0507 67.2664 14.25C67.1407 14.6356 67.1699 15.0549 67.3477 15.4194C67.5256 15.7839 67.8382 16.0649 68.2195 16.2031C74.0518 18.4476 79.2308 22.1141 83.2856 26.8693C87.3405 31.6246 90.1426 37.3178 91.4374 43.4315C92.7322 49.5452 92.4785 55.8856 90.6995 61.8763C88.9205 67.8671 85.6725 73.3182 81.2507 77.7344L79.3132 74.4531C79.1777 74.2244 78.986 74.034 78.7563 73.9C78.5266 73.766 78.2666 73.6929 78.0007 73.6875C77.734 73.6826 77.4705 73.7461 77.2353 73.8719C77.0001 73.9978 76.801 74.1817 76.657 74.4062L69.0789 86.1406C68.9306 86.371 68.8454 86.6363 68.832 86.9099C68.8186 87.1835 68.8774 87.4558 69.0024 87.6996C69.1275 87.9433 69.3144 88.1499 69.5444 88.2986C69.7745 88.4473 70.0396 88.5329 70.3132 88.5469H70.4226L84.3757 87.5C84.6398 87.4803 84.8946 87.3938 85.1161 87.2486C85.3376 87.1034 85.5185 86.9043 85.6419 86.6699C85.7653 86.4356 85.8272 86.1738 85.8216 85.909C85.816 85.6442 85.7433 85.3852 85.6101 85.1562L82.8289 80.4687C87.7543 75.7334 91.406 69.8323 93.4458 63.3113C95.4856 56.7903 95.8478 49.8602 94.4989 43.1621C93.1499 36.4641 90.1334 30.2144 85.7284 24.9914C81.3233 19.7684 75.6721 15.7408 69.2976 13.2812ZM73.3289 85.1562L77.8445 78.1719L81.6414 84.5781L73.3289 85.1562Z" fill="#1E24C0"/>
<path d="M50 20.3125C51.8542 20.3125 53.6668 19.7627 55.2085 18.7325C56.7502 17.7024 57.9518 16.2382 58.6614 14.5252C59.3709 12.8121 59.5566 10.9271 59.1949 9.10853C58.8331 7.28996 57.9402 5.6195 56.6291 4.30838C55.318 2.99726 53.6475 2.10438 51.829 1.74264C50.0104 1.38091 48.1254 1.56656 46.4123 2.27613C44.6993 2.98571 43.2351 4.18732 42.205 5.72903C41.1748 7.27074 40.625 9.08331 40.625 10.9375C40.625 13.4239 41.6127 15.8085 43.3709 17.5666C45.129 19.3248 47.5136 20.3125 50 20.3125ZM50 4.6875C51.2361 4.6875 52.4445 5.05406 53.4723 5.74082C54.5001 6.42758 55.3012 7.4037 55.7742 8.54573C56.2473 9.68777 56.3711 10.9444 56.1299 12.1568C55.8888 13.3692 55.2935 14.4828 54.4194 15.3569C53.5453 16.231 52.4317 16.8263 51.2193 17.0674C50.0069 17.3086 48.7503 17.1848 47.6082 16.7118C46.4662 16.2387 45.4901 15.4376 44.8033 14.4098C44.1166 13.382 43.75 12.1736 43.75 10.9375C43.75 9.2799 44.4085 7.69019 45.5806 6.51809C46.7527 5.34598 48.3424 4.6875 50 4.6875Z" fill="#1E24C0"/>
<path d="M50 79.6875C48.1458 79.6875 46.3332 80.2373 44.7915 81.2675C43.2498 82.2976 42.0482 83.7618 41.3386 85.4748C40.6291 87.1879 40.4434 89.0729 40.8051 90.8915C41.1669 92.71 42.0598 94.3805 43.3709 95.6916C44.682 97.0027 46.3525 97.8956 48.171 98.2574C49.9896 98.6191 51.8746 98.4334 53.5877 97.7239C55.3007 97.0143 56.7649 95.8127 57.795 94.271C58.8252 92.7293 59.375 90.9167 59.375 89.0625C59.375 86.5761 58.3873 84.1915 56.6291 82.4334C54.871 80.6752 52.4864 79.6875 50 79.6875ZM50 95.3125C48.7639 95.3125 47.5555 94.9459 46.5277 94.2592C45.4999 93.5724 44.6988 92.5963 44.2258 91.4543C43.7527 90.3122 43.6289 89.0556 43.8701 87.8432C44.1113 86.6308 44.7065 85.5172 45.5806 84.6431C46.4547 83.769 47.5683 83.1737 48.7807 82.9326C49.9931 82.6914 51.2497 82.8152 52.3918 83.2883C53.5338 83.7613 54.5099 84.5624 55.1967 85.5902C55.8834 86.618 56.25 87.8264 56.25 89.0625C56.25 90.7201 55.5915 92.3098 54.4194 93.4819C53.2473 94.654 51.6576 95.3125 50 95.3125Z" fill="#1E24C0"/>
<path d="M50 25C45.0555 25 40.222 26.4662 36.1108 29.2133C31.9995 31.9603 28.7952 35.8648 26.903 40.4329C25.0108 45.0011 24.5157 50.0277 25.4804 54.8773C26.445 59.7268 28.826 64.1814 32.3223 67.6777C35.8187 71.174 40.2732 73.555 45.1228 74.5196C49.9723 75.4843 54.9989 74.9892 59.5671 73.097C64.1353 71.2048 68.0397 68.0005 70.7868 63.8893C73.5338 59.778 75 54.9445 75 50C75 43.3696 72.3661 37.0107 67.6777 32.3223C62.9893 27.6339 56.6304 25 50 25ZM41.6563 29.7969C40.2173 31.6922 39.0838 33.8011 38.2969 36.0469C36.995 35.6892 35.725 35.224 34.5 34.6562C36.5346 32.572 38.9685 30.9193 41.6563 29.7969ZM32.4219 37.0313C34.001 37.8317 35.6547 38.4754 37.3594 38.9531C36.5197 42.0488 36.0425 45.2316 35.9375 48.4375H28.125C28.4392 44.3032 29.9302 40.3452 32.4219 37.0313ZM28.2031 51.5625H36.0156C36.1053 54.7665 36.5668 57.9493 37.3906 61.0469C35.686 61.5246 34.0322 62.1684 32.4531 62.9688C29.9782 59.6495 28.5036 55.692 28.2031 51.5625ZM34.4531 65.4062C35.6947 64.8521 36.9804 64.4026 38.2969 64.0625C39.0838 66.3083 40.2173 68.4171 41.6563 70.3125C38.9645 69.1762 36.5303 67.5073 34.5 65.4062H34.4531ZM48.3906 71.6562C45.5625 70.8125 43.0625 67.7188 41.3594 63.3438C43.6927 62.8753 46.0595 62.5932 48.4375 62.5L48.3906 71.6562ZM48.4375 59.375C45.7402 59.4466 43.0537 59.7445 40.4063 60.2656C39.6231 57.4263 39.1722 54.5058 39.0625 51.5625H48.4375V59.375ZM48.4375 48.4375H39.0625C39.1533 45.4803 39.5885 42.5439 40.3594 39.6875C43.0209 40.227 45.7232 40.5406 48.4375 40.625V48.4375ZM48.4375 37.5C46.0777 37.4353 43.7266 37.1845 41.4063 36.75C43.1094 32.375 45.6094 29.2813 48.4375 28.4375V37.5ZM71.875 48.4375H64.0625C63.9728 45.2335 63.5114 42.0507 62.6875 38.9531C64.3922 38.4754 66.0459 37.8317 67.625 37.0313C70.0999 40.3505 71.5745 44.308 71.875 48.4375ZM65.625 34.5937C64.4 35.1615 63.13 35.6267 61.8281 35.9844C61.0412 33.7386 59.9077 31.6297 58.4688 29.7344C61.1118 30.8714 63.5021 32.5233 65.5 34.5937H65.625ZM51.6875 28.3437C54.5156 29.1875 57.0156 32.2812 58.7188 36.6562C56.3598 37.1288 53.9667 37.411 51.5625 37.5L51.6875 28.3437ZM51.5625 40.625C54.2598 40.5534 56.9463 40.2555 59.5938 39.7344C60.3769 42.5737 60.8278 45.4942 60.9375 48.4375H51.5625V40.625ZM51.5625 51.5625H60.9375C60.8468 54.5197 60.4115 57.4561 59.6406 60.3125C56.9791 59.773 54.2768 59.4594 51.5625 59.375V51.5625ZM51.5625 71.6094V62.5C53.9223 62.5647 56.2734 62.8155 58.5938 63.25C56.8906 67.6719 54.3906 70.7656 51.5625 71.6094ZM58.3438 70.2031C59.7827 68.3078 60.9162 66.1989 61.7031 63.9531C63.0051 64.3108 64.275 64.776 65.5 65.3438C63.4654 67.428 61.0315 69.0807 58.3438 70.2031ZM67.5781 62.9688C65.999 62.1684 64.3453 61.5246 62.6406 61.0469C63.4804 57.9512 63.9575 54.7684 64.0625 51.5625H71.875C71.5608 55.6968 70.0698 59.6548 67.5781 62.9688Z" fill="#1E24C0"/>
</svg>
