<svg width="100" height="100" viewBox="0 0 100 100" fill="none" xmlns="http://www.w3.org/2000/svg">
<path d="M76.3066 15.6323C76.8657 14.8385 76.6754 13.742 75.8815 13.183C68.2795 7.82955 59.33 5 50.0006 5C44.1604 5 38.4776 6.10285 33.1098 8.27779C32.2101 8.64236 31.7763 9.66734 32.1408 10.567C32.5052 11.4666 33.5297 11.9006 34.43 11.5361C39.3765 9.53182 44.615 8.51562 50.0006 8.51562C58.6015 8.51562 66.851 11.1235 73.8574 16.0573C74.1652 16.2739 74.5184 16.3781 74.868 16.3781C75.4205 16.3781 75.9643 16.1183 76.3066 15.6323Z" fill="#1E24C0"/>
<path d="M95.0013 50C95.0013 41.0062 92.3564 32.3247 87.3522 24.894C86.8098 24.0886 85.7173 23.8757 84.9122 24.4179C84.107 24.9601 83.8937 26.0524 84.436 26.8577C89.048 33.7061 91.4857 41.7086 91.4857 50C91.4857 58.817 88.7803 67.1758 83.651 74.265C82.8104 73.8829 81.8784 73.6682 80.8965 73.6682C77.2133 73.6682 74.2168 76.6648 74.2168 80.3479C74.2168 84.0311 77.2133 87.0276 80.8965 87.0276C84.5796 87.0276 87.5762 84.0311 87.5762 80.3479C87.5762 78.9223 87.1258 77.6006 86.3619 76.5148C92.0173 68.7824 95.0013 59.6435 95.0013 50ZM80.8965 83.512C79.1519 83.512 77.7324 82.0926 77.7324 80.3479C77.7324 78.6033 79.1519 77.1839 80.8965 77.1839C82.6411 77.1839 84.0605 78.6033 84.0605 80.3479C84.0605 82.0926 82.6411 83.512 80.8965 83.512Z" fill="#1E24C0"/>
<path d="M65.5704 88.4635C60.6242 90.468 55.3856 91.4842 50 91.4842C27.1254 91.4842 8.51562 72.8744 8.51562 49.9998C8.51562 41.1828 11.2211 32.824 16.3504 25.7348C17.191 26.1169 18.1229 26.3315 19.1049 26.3315C22.788 26.3315 25.7845 23.335 25.7845 19.6519C25.7845 15.9687 22.788 12.9722 19.1049 12.9722C15.4217 12.9722 12.4252 15.9687 12.4252 19.6519C12.4252 21.0774 12.8755 22.3991 13.6395 23.4849C7.98406 31.2174 5 40.3562 5 49.9998C5 62.0197 9.68088 73.3202 18.1801 81.8195C26.6796 90.3191 37.9801 94.9998 50 94.9998C55.8402 94.9998 61.523 93.8969 66.8908 91.722C67.7905 91.3574 68.2243 90.3324 67.8597 89.4328C67.495 88.5328 66.4698 88.0991 65.5704 88.4635ZM19.1049 16.4878C20.8495 16.4878 22.2689 17.9072 22.2689 19.6519C22.2689 21.3965 20.8495 22.8159 19.1049 22.8159C17.3602 22.8159 15.9408 21.3965 15.9408 19.6519C15.9408 17.9072 17.3602 16.4878 19.1049 16.4878Z" fill="#1E24C0"/>
<path d="M50.0007 46.0925C46.2891 46.0925 43.2695 49.1121 43.2695 52.8235C43.2695 54.3623 43.7825 55.8222 44.7273 57.008V62.2572C44.7273 65.165 47.0929 67.5306 50.0007 67.5306C52.9085 67.5306 55.2742 65.165 55.2742 62.2572V57.008C56.219 55.822 56.7319 54.3623 56.7319 52.8235C56.7319 49.1121 53.7123 46.0925 50.0007 46.0925ZM52.2738 55.0978C51.944 55.4276 51.7585 55.8748 51.7585 56.3411V62.2572C51.7585 63.2265 50.97 64.015 50.0007 64.015C49.0315 64.015 48.2429 63.2265 48.2429 62.2572V56.3411C48.2429 55.8748 48.0575 55.4274 47.7277 55.0978C47.1198 54.4903 46.7852 53.6828 46.7852 52.8235C46.7852 51.0506 48.2276 49.6082 50.0007 49.6082C51.7738 49.6082 53.2163 51.0506 53.2163 52.8235C53.2163 53.6828 52.8816 54.4905 52.2738 55.0978Z" fill="#1E24C0"/>
<path d="M66.1633 39.3863V35.7824C66.1633 26.8699 58.9125 19.6191 50 19.6191C41.0875 19.6191 33.8367 26.8699 33.8367 35.7824V39.3863C31.5609 40.355 29.9609 42.6136 29.9609 45.2391V68.3833C29.9609 71.8889 32.813 74.741 36.3184 74.741H63.6816C67.187 74.741 70.0391 71.8889 70.0391 68.3833V45.2391C70.0391 42.6136 68.4391 40.355 66.1633 39.3863ZM37.3524 35.7824C37.3524 28.8085 43.0261 23.1348 50 23.1348C56.9739 23.1348 62.6476 28.8085 62.6476 35.7824V38.8816H58.9605V35.7824C58.9605 30.8415 54.9409 26.822 49.9998 26.822C45.0588 26.822 41.0392 30.8417 41.0392 35.7824V38.8816H37.352V35.7824H37.3524ZM44.555 38.8816V35.7824C44.555 32.7801 46.9977 30.3376 50 30.3376C53.0023 30.3376 55.445 32.7801 55.445 35.7824V38.8816H44.555ZM66.5234 68.3833C66.5234 69.9504 65.2485 71.2254 63.6816 71.2254H36.3184C34.7515 71.2254 33.4766 69.9504 33.4766 68.3833V45.2391C33.4766 43.672 34.7515 42.3972 36.3184 42.3972H63.6816C65.2485 42.3972 66.5234 43.6722 66.5234 45.2391V68.3833Z" fill="#1E24C0"/>
<path d="M80.8965 21.5024C81.3588 21.5024 81.8123 21.3161 82.1393 20.9891C82.466 20.6622 82.6543 20.2086 82.6543 19.7463C82.6543 19.2823 82.4662 18.8288 82.1393 18.5018C81.8123 18.1749 81.3586 17.9885 80.8965 17.9885C80.4342 17.9885 79.9807 18.1749 79.6537 18.5018C79.3269 18.8288 79.1387 19.2823 79.1387 19.7463C79.1387 20.2086 79.3268 20.6604 79.6537 20.9891C79.9807 21.3161 80.4342 21.5024 80.8965 21.5024Z" fill="#1E24C0"/>
</svg>
